<?xml version="1.0" encoding="utf-8"?>
<!-- Generator: Adobe Illustrator 26.2.1, SVG Export Plug-In . SVG Version: 6.00 Build 0)  -->
<svg version="1.1" id="Слой_1" xmlns="http://www.w3.org/2000/svg" xmlns:xlink="http://www.w3.org/1999/xlink" x="0px" y="0px"
	 viewBox="0 0 16.1 12.1" style="enable-background:new 0 0 16.1 12.1;" xml:space="preserve">
<g>
	<path d="M16,5.7C15.9,5.5,13.1,0,8,0c-5,0-7.8,5.5-8,5.7C0,5.9,0,6.1,0.1,6.3c0.1,0.2,2.9,5.7,8,5.7c5,0,7.8-5.5,8-5.7
		C16.1,6.1,16.1,5.9,16,5.7z M8,10.7c-3.5,0-5.9-3.5-6.5-4.6c0.6-1.1,3-4.6,6.5-4.6c3.5,0,5.9,3.5,6.5,4.6
		C13.9,7.1,11.6,10.7,8,10.7z"/>
	<path d="M8,3.3C6.5,3.3,5.3,4.5,5.3,6c0,1.5,1.2,2.7,2.7,2.7c1.5,0,2.7-1.2,2.7-2.7C10.7,4.5,9.5,3.3,8,3.3z M8,7.3
		C7.3,7.3,6.7,6.8,6.7,6S7.3,4.7,8,4.7S9.3,5.3,9.3,6S8.8,7.3,8,7.3z"/>
</g>
</svg>
