<?xml version="1.0" encoding="utf-8"?>
<!-- Generator: Adobe Illustrator 26.2.1, SVG Export Plug-In . SVG Version: 6.00 Build 0)  -->
<svg version="1.1" id="Слой_1" xmlns="http://www.w3.org/2000/svg" xmlns:xlink="http://www.w3.org/1999/xlink" x="0px" y="0px"
	 viewBox="0 0 16.8 17.5" style="enable-background:new 0 0 16.8 17.5;" xml:space="preserve">
<path d="M12,11h-0.8L11,10.7c0.9-1.1,1.5-2.6,1.5-4.2C12.5,2.9,9.7,0,6.2,0C2.8,0,0,2.9,0,6.5S2.8,13,6.2,13c1.5,0,3-0.6,4.1-1.6
	l0.3,0.3v0.8l4.8,5l1.4-1.5L12,11z M6.2,11c-2.4,0-4.3-2-4.3-4.5S3.8,2,6.2,2s4.3,2,4.3,4.5S8.6,11,6.2,11z"/>
</svg>
