<?xml version="1.0" encoding="utf-8"?>
<!-- Generator: Adobe Illustrator 26.2.1, SVG Export Plug-In . SVG Version: 6.00 Build 0)  -->
<svg version="1.1" id="Слой_1" xmlns="http://www.w3.org/2000/svg" xmlns:xlink="http://www.w3.org/1999/xlink" x="0px" y="0px"
	 viewBox="0 0 13.4 13.4" style="enable-background:new 0 0 13.4 13.4;" xml:space="preserve">
<g>
	<path d="M0.7,13.4c-0.1,0-0.2,0-0.3-0.1C0.2,13.2,0,13,0,12.7V2C0,1.5,0.2,1,0.6,0.6C1,0.2,1.5,0,2,0h9.3c0.5,0,1.1,0.2,1.4,0.6
		C13.2,1,13.4,1.5,13.4,2v6.7c0,0.5-0.2,1.1-0.6,1.4c-0.4,0.4-0.9,0.6-1.4,0.6H3.7l-2.5,2.5C1.1,13.3,0.9,13.4,0.7,13.4z M2,1.4
		c-0.2,0-0.3,0.1-0.4,0.2S1.4,1.9,1.4,2v9l1.5-1.5C3,9.4,3.2,9.3,3.4,9.3h8c0.2,0,0.3-0.1,0.4-0.2C11.9,9,12,8.9,12,8.7V2
		c0-0.2-0.1-0.3-0.2-0.4c-0.1-0.1-0.3-0.2-0.4-0.2H2z"/>
</g>
</svg>
