<svg width="87" height="23" viewBox="0 0 87 23" fill="none" xmlns="http://www.w3.org/2000/svg">
<path d="M0.896 17V0.079999H3.608L9.824 14.072H9.08L15.296 0.079999H17.984V17H15.176V4.448H16.04L10.352 17H8.504L2.816 4.448H3.704V17H0.896ZM21.2748 22.448L20.5788 20.072C21.3308 19.912 21.9628 19.728 22.4748 19.52C22.9868 19.312 23.4108 19.04 23.7468 18.704C24.0828 18.368 24.3628 17.936 24.5868 17.408L25.1868 15.992L25.1148 17.168L19.8348 4.88H23.0268L26.8188 14.336H26.1228L29.9388 4.88H32.9628L27.4428 17.672C27.0748 18.536 26.6748 19.248 26.2428 19.808C25.8108 20.384 25.3468 20.84 24.8508 21.176C24.3548 21.528 23.8108 21.8 23.2188 21.992C22.6268 22.184 21.9788 22.336 21.2748 22.448ZM34.1002 11.576V9.2H41.3962V11.576H34.1002ZM49.3276 17.24C48.2716 17.24 47.3436 16.992 46.5436 16.496C45.7436 15.984 45.1196 15.256 44.6716 14.312C44.2236 13.368 43.9996 12.24 43.9996 10.928C43.9996 9.616 44.2236 8.496 44.6716 7.568C45.1196 6.624 45.7436 5.904 46.5436 5.408C47.3436 4.896 48.2716 4.64 49.3276 4.64C50.3516 4.64 51.2476 4.896 52.0156 5.408C52.7996 5.904 53.3196 6.576 53.5756 7.424H53.3116L53.5756 4.88H56.4556C56.4076 5.376 56.3596 5.88 56.3116 6.392C56.2796 6.904 56.2636 7.408 56.2636 7.904V17H53.2876L53.2636 14.504H53.5516C53.2956 15.336 52.7756 16 51.9916 16.496C51.2076 16.992 50.3196 17.24 49.3276 17.24ZM50.1676 14.936C51.1116 14.936 51.8716 14.608 52.4476 13.952C53.0236 13.28 53.3116 12.272 53.3116 10.928C53.3116 9.584 53.0236 8.584 52.4476 7.928C51.8716 7.272 51.1116 6.944 50.1676 6.944C49.2236 6.944 48.4636 7.272 47.8876 7.928C47.3116 8.584 47.0236 9.584 47.0236 10.928C47.0236 12.272 47.3036 13.28 47.8636 13.952C48.4396 14.608 49.2076 14.936 50.1676 14.936ZM59.5304 22.184V7.904C59.5304 7.408 59.5144 6.904 59.4824 6.392C59.4504 5.88 59.4024 5.376 59.3384 4.88H62.2424L62.5064 7.424H62.2424C62.4824 6.576 62.9864 5.904 63.7544 5.408C64.5384 4.896 65.4424 4.64 66.4664 4.64C67.5384 4.64 68.4744 4.896 69.2744 5.408C70.0744 5.904 70.6984 6.624 71.1464 7.568C71.5944 8.496 71.8184 9.616 71.8184 10.928C71.8184 12.24 71.5944 13.368 71.1464 14.312C70.6984 15.256 70.0744 15.984 69.2744 16.496C68.4744 16.992 67.5384 17.24 66.4664 17.24C65.4584 17.24 64.5704 16.992 63.8024 16.496C63.0344 16 62.5224 15.336 62.2664 14.504H62.5304V22.184H59.5304ZM65.6264 14.936C66.5864 14.936 67.3544 14.608 67.9304 13.952C68.5064 13.28 68.7944 12.272 68.7944 10.928C68.7944 9.584 68.5064 8.584 67.9304 7.928C67.3544 7.272 66.5864 6.944 65.6264 6.944C64.6824 6.944 63.9224 7.272 63.3464 7.928C62.7704 8.584 62.4824 9.584 62.4824 10.928C62.4824 12.272 62.7704 13.28 63.3464 13.952C63.9224 14.608 64.6824 14.936 65.6264 14.936ZM74.4133 22.184V7.904C74.4133 7.408 74.3973 6.904 74.3652 6.392C74.3333 5.88 74.2853 5.376 74.2213 4.88H77.1253L77.3893 7.424H77.1253C77.3653 6.576 77.8693 5.904 78.6373 5.408C79.4213 4.896 80.3253 4.64 81.3493 4.64C82.4213 4.64 83.3573 4.896 84.1573 5.408C84.9573 5.904 85.5813 6.624 86.0293 7.568C86.4773 8.496 86.7013 9.616 86.7013 10.928C86.7013 12.24 86.4773 13.368 86.0293 14.312C85.5813 15.256 84.9573 15.984 84.1573 16.496C83.3573 16.992 82.4213 17.24 81.3493 17.24C80.3413 17.24 79.4533 16.992 78.6853 16.496C77.9173 16 77.4053 15.336 77.1493 14.504H77.4133V22.184H74.4133ZM80.5093 14.936C81.4693 14.936 82.2373 14.608 82.8133 13.952C83.3893 13.28 83.6773 12.272 83.6773 10.928C83.6773 9.584 83.3893 8.584 82.8133 7.928C82.2373 7.272 81.4693 6.944 80.5093 6.944C79.5653 6.944 78.8053 7.272 78.2293 7.928C77.6533 8.584 77.3653 9.584 77.3653 10.928C77.3653 12.272 77.6533 13.28 78.2293 13.952C78.8053 14.608 79.5653 14.936 80.5093 14.936Z" fill="white"/>
</svg>
